<svg width="16" height="16" viewBox="0 0 16 16" fill="none" xmlns="http://www.w3.org/2000/svg">
<path fill-rule="evenodd" clip-rule="evenodd" d="M6.83317 4.5C4.25584 4.5 2.1665 6.58934 2.1665 9.16667C2.1665 11.744 4.25584 13.8333 6.83317 13.8333C9.4105 13.8333 11.4998 11.744 11.4998 9.16667C11.4998 6.58934 9.4105 4.5 6.83317 4.5ZM1.1665 9.16667C1.1665 6.03705 3.70356 3.5 6.83317 3.5C9.96278 3.5 12.4998 6.03705 12.4998 9.16667C12.4998 12.2963 9.96278 14.8333 6.83317 14.8333C3.70356 14.8333 1.1665 12.2963 1.1665 9.16667Z" fill="#C6AC41"/>
<path fill-rule="evenodd" clip-rule="evenodd" d="M14.6867 1.31313C14.882 1.5084 14.882 1.82498 14.6867 2.02024L11.0201 5.68691C10.8248 5.88217 10.5082 5.88217 10.313 5.68691C10.1177 5.49164 10.1177 5.17506 10.313 4.9798L13.9796 1.31313C14.1749 1.11787 14.4915 1.11787 14.6867 1.31313Z" fill="#C6AC41"/>
<path fill-rule="evenodd" clip-rule="evenodd" d="M9.5 1.66669C9.5 1.39054 9.72386 1.16669 10 1.16669H14.3333C14.6095 1.16669 14.8333 1.39054 14.8333 1.66669V6.00002C14.8333 6.27616 14.6095 6.50002 14.3333 6.50002C14.0572 6.50002 13.8333 6.27616 13.8333 6.00002V2.16669H10C9.72386 2.16669 9.5 1.94283 9.5 1.66669Z" fill="#C6AC41"/>
</svg>
