<?xml version="1.0" standalone="no"?>
<!DOCTYPE svg PUBLIC "-//W3C//DTD SVG 20010904//EN"
 "http://www.w3.org/TR/2001/REC-SVG-20010904/DTD/svg10.dtd">
<svg version="1.0" xmlns="http://www.w3.org/2000/svg"
 width="1000.000000pt" height="1003.000000pt" viewBox="0 0 1000.000000 1003.000000"
 preserveAspectRatio="xMidYMid meet">

<g transform="translate(0.000000,1003.000000) scale(0.100000,-0.100000)"
fill="#000000" stroke="none">
<path d="M3281 6895 c-196 -43 -368 -182 -458 -370 -66 -139 -64 -96 -61
-1338 l3 -1122 27 -80 c67 -198 220 -351 420 -423 63 -22 93 -26 224 -30 l151
-4 6 128 c4 71 9 141 13 157 l6 27 -119 0 c-75 0 -138 5 -168 14 -71 22 -146
77 -188 137 -69 102 -67 64 -67 1136 0 530 2 963 5 963 5 0 609 -454 1215
-914 182 -138 243 -174 366 -215 131 -44 257 -58 384 -43 114 13 256 57 340
104 49 28 399 289 1167 870 144 109 264 198 267 198 3 0 6 -364 6 -808 l0
-809 98 -6 c53 -4 123 -13 155 -21 l57 -13 0 941 c0 1039 1 1016 -64 1151 -83
175 -210 286 -407 357 l-64 23 -1625 2 c-1363 1 -1635 -1 -1689 -12z m3329
-332 c66 -32 147 -104 137 -120 -4 -5 -120 -96 -259 -201 -139 -106 -473 -359
-743 -563 -287 -218 -515 -384 -551 -401 -168 -79 -381 -72 -536 19 -51 30
-1504 1129 -1514 1145 -9 15 61 82 117 112 27 15 68 31 91 35 24 5 752 8 1618
7 l1575 -1 65 -32z"/>
<path d="M4247 4329 c-165 -40 -333 -160 -426 -302 -120 -185 -148 -437 -71
-647 83 -230 283 -402 523 -452 49 -10 350 -13 1397 -13 l1335 0 75 23 c201
63 354 190 441 367 58 119 73 188 73 340 0 116 -3 139 -28 210 -38 112 -98
208 -180 290 -83 82 -169 135 -281 173 l-80 27 -1350 2 c-1306 2 -1353 1
-1428 -18z m353 -479 c0 -44 2 -80 4 -80 3 0 32 16 66 36 33 19 65 34 71 32 5
-2 25 -30 44 -63 l34 -61 -70 -39 c-38 -21 -69 -41 -69 -44 0 -3 32 -24 70
-45 l70 -39 -19 -31 c-10 -17 -27 -46 -37 -63 -10 -18 -22 -33 -26 -33 -4 0
-34 16 -67 35 -32 19 -62 35 -65 35 -3 0 -6 -36 -6 -80 l0 -80 -80 0 -80 0 0
80 c0 44 -3 80 -6 80 -3 0 -33 -16 -65 -35 -33 -19 -63 -35 -67 -35 -8 0 -12
7 -55 81 l-27 46 70 39 c38 21 70 42 70 45 0 3 -31 23 -69 44 l-70 40 32 58
c18 33 37 61 44 64 6 3 39 -11 73 -31 34 -20 63 -36 66 -36 2 0 4 36 4 80 l0
80 80 0 80 0 0 -80z m750 0 c0 -44 3 -80 6 -80 4 0 37 17 74 39 l67 38 38 -64
c21 -35 34 -67 31 -71 -4 -3 -37 -23 -73 -43 l-65 -37 71 -42 c39 -23 71 -44
71 -46 0 -9 -63 -114 -71 -120 -5 -3 -41 13 -79 35 l-70 40 0 -85 0 -84 -75 0
-74 0 -3 84 -3 84 -67 -40 c-37 -22 -71 -37 -77 -34 -8 6 -71 110 -71 120 0 2
32 23 71 46 l71 42 -65 37 c-36 20 -69 40 -72 43 -4 4 10 36 30 71 l36 65 68
-39 c37 -21 71 -39 75 -39 3 0 6 36 6 80 l0 80 75 0 75 0 0 -80z m760 0 c0
-44 2 -80 4 -80 3 0 32 16 65 35 32 19 63 35 68 35 5 0 25 -28 45 -62 l37 -63
-69 -39 c-39 -22 -70 -43 -70 -46 0 -3 31 -23 70 -44 l70 -40 -27 -45 c-43
-74 -47 -81 -55 -81 -4 0 -34 16 -67 35 -32 19 -62 35 -65 35 -3 0 -6 -36 -6
-80 l0 -80 -80 0 -80 0 0 80 c0 44 -3 80 -7 80 -5 0 -34 -16 -67 -35 -32 -20
-63 -34 -68 -33 -5 2 -24 31 -43 64 l-34 61 69 39 c38 21 70 41 70 44 0 3 -31
23 -69 45 l-70 40 32 58 c18 33 37 61 44 64 6 3 39 -11 73 -31 34 -20 63 -36
66 -36 2 0 4 36 4 80 l0 80 80 0 80 0 0 -80z m750 0 c0 -44 3 -80 8 -80 4 0
36 18 72 39 36 22 66 39 66 38 17 -19 74 -130 69 -135 -3 -3 -35 -23 -71 -43
-72 -40 -73 -37 19 -88 31 -18 57 -35 57 -38 0 -10 -71 -123 -77 -123 -3 0
-37 18 -74 39 l-69 40 0 -85 0 -84 -75 0 -75 0 0 80 c0 44 -4 80 -9 80 -6 0
-37 -16 -71 -36 -33 -19 -64 -32 -69 -29 -10 6 -71 108 -71 118 0 4 29 23 65
44 36 20 65 40 65 44 0 4 -29 24 -65 44 -36 20 -65 38 -65 41 0 3 16 34 35 69
l36 63 68 -39 c37 -21 71 -39 75 -39 3 0 6 36 6 80 l0 80 75 0 75 0 0 -80z"/>
<path d="M0 15 c0 -13 562 -15 5000 -15 4438 0 5000 2 5000 15 0 13 -562 15
-5000 15 -4438 0 -5000 -2 -5000 -15z"/>
</g>
</svg>
