<svg xmlns="http://www.w3.org/2000/svg" viewBox="0 0 588.26 541.12" xmlns:v="https://vecta.io/nano"><style><![CDATA[.F{letter-spacing:0.01em}.G{letter-spacing:-0.01em}.H{letter-spacing:-0.01em}]]></style><path d="M142.76 297.25q5.12 0 14.53.68a132.7 132.7 0 0 1 20.45 3.23 123.55 123.55 0 0 1 22.46 7.66 72.1 72.1 0 0 1 20.86 14.26A70.3 70.3 0 0 1 236.39 346q5.93 13.73 5.92 33.36a110.17 110.17 0 0 1-3 26.64 100.13 100.13 0 0 1-7.67 21.12 76.69 76.69 0 0 1-10.76 16.15 97 97 0 0 1-12.51 12 91.57 91.57 0 0 1-33.9 16.95l-34.44-13.45-23.37-138.65zM173.17 424a41.49 41.49 0 0 0 13.18-9.42 55 55 0 0 0 9.28-14q4.17-8.61 4.17-22.06a39 39 0 0 0-3-16 32.84 32.84 0 0 0-7.26-10.63A27.57 27.57 0 0 0 180 346a28.72 28.72 0 0 0-9.56-1.88 16.57 16.57 0 0 0-5.78.94 8 8 0 0 0-3.9 2.83zm132.9-89.35a40.47 40.47 0 0 1 21.12 5.35 45.45 45.45 0 0 1 14.94 14.53 69.74 69.74 0 0 1 8.87 20.88 99.14 99.14 0 0 1 3 24.35 112.27 112.27 0 0 1-3.76 28.79 84.87 84.87 0 0 1-11.3 25.56 61.76 61.76 0 0 1-18.7 18.3q-11.18 7-26 7-11.85 0-20.32-4.57a38.64 38.64 0 0 1-13.85-12.51 56.17 56.17 0 0 1-7.94-18.3 90.9 90.9 0 0 1-2.56-21.93 118.54 118.54 0 0 1 4.17-30.67 114.13 114.13 0 0 1 11.57-28.25 70 70 0 0 1 17.76-20.58 36.91 36.91 0 0 1 23-7.95zm-5.65 106a9.22 9.22 0 0 0 7-3.23 24.85 24.85 0 0 0 4.84-8.34 58 58 0 0 0 2.83-11.7 95.35 95.35 0 0 0 .94-13.32 94.14 94.14 0 0 0-.81-12.51 65.42 65.42 0 0 0-2.28-10.77 27.17 27.17 0 0 0-3.5-7.53q-2-2.82-4.71-2.82-2.71 0-5.38 4.57a54.16 54.16 0 0 0-4.85 11.7 118.25 118.25 0 0 0-3.5 15.62 103.57 103.57 0 0 0-1.35 16.28 44.62 44.62 0 0 0 2.42 15.6q2.44 6.47 8.35 6.46zm144.48-68.6a108 108 0 0 0-11 .81 46.9 46.9 0 0 0-14.56 4.14 36.13 36.13 0 0 0-12.78 10.09q-5.56 6.75-5.56 18.32c0 5.75.81 10.36 2.43 13.86a21.81 21.81 0 0 0 6.18 8.21 21.22 21.22 0 0 0 8.21 4 35.91 35.91 0 0 0 8.48 1.08 33.81 33.81 0 0 0 8.07-.81 19.28 19.28 0 0 0 3.5-.81l-5.12-28 31.48-5.65 11.84 70-29.86 9.41-4.31-15.87a37 37 0 0 1-7.26 6.46 41.74 41.74 0 0 1-9.55 4.3 44.93 44.93 0 0 1-13.86 1.88 36.65 36.65 0 0 1-16.28-4 42.89 42.89 0 0 1-14.8-12.51q-6.58-8.47-10.89-21.53-4.31-13.06-4.26-31.09 0-17.76 5.65-30.54a52.62 52.62 0 0 1 16.14-20.8q10.48-8.07 25.82-11.84a146.05 146.05 0 0 1 34.71-3.77v34.71zM193 143.27l-45.71 126.46 37.13 16.95 10.23-43.32 17.48 2.69 1.35 35.79L253.3 266l-13.72-108.7zm12.51 77.36q-3.09.41-6 .94L210 176.9l1.35 42.78-5.81.95zM351.88 217a45.1 45.1 0 0 0 3.5-18.56 62.27 62.27 0 0 0-1.88-15.07q-2.7-12.11-8.61-19.91a46.11 46.11 0 0 0-13.59-12.24 53.49 53.49 0 0 0-16.54-6.22 92.17 92.17 0 0 0-17.76-1.73 116.37 116.37 0 0 0-20.85 1.73q-9.56 1.75-15.74 3.1l14.79 141.81 39.29-8.91-4-32 2.69-1.07a2.07 2.07 0 0 0 .81-.27 2.66 2.66 0 0 1 1.21-.27 2.75 2.75 0 0 0 1.48-.54l22.06 31.48 32-17.76L343 230.45a47.49 47.49 0 0 0 8.88-13.45zm-34.17-7.13a16.44 16.44 0 0 1-3.49 4.44 12.2 12.2 0 0 1-5.11 2.43h-2.7l-5.11-40.9a20.44 20.44 0 0 1 2.69.4 13.9 13.9 0 0 1 4.85 2.16 20.65 20.65 0 0 1 5.38 5.64 32.1 32.1 0 0 1 4.3 10.9 36.24 36.24 0 0 1 .81 7q0 5.06-1.62 7.92zm148.25-20.32l-25.29-33.09L410 191.7l-1.35-48.16h-34.44l6.73 142.33 32.02 3.77-1.08-42.24 28.25 40.09 29.06-23.14-34.44-43.59 31.21-31.21zm55.95-.22a9.44 9.44 0 0 1-5.66 1.84 22 22 0 0 0-8.62 1.38 22.28 22.28 0 0 0-7.2 4.74 10.25 10.25 0 0 1-15.58-1.46 10.6 10.6 0 0 1-1.5-3l-6.1 94.88 33.91-4.3 13.68-97.26a10.36 10.36 0 0 1-2.93 3.18z" fill="#13213c"/><path d="M528.73 157.94a21.75 21.75 0 0 1 .09 3.69 8.63 8.63 0 0 1-5 7 6.86 6.86 0 0 1-9.11-3.15 9.33 9.33 0 0 1 2.92-11.81 6.9 6.9 0 0 1 10.09 2.1 1.86 1.86 0 0 0 .23.26zM507 190a19.81 19.81 0 0 0-6.47 4.26 9.22 9.22 0 0 1-14-1.31 8.24 8.24 0 0 1-1.6-6.3c.82-4.64 1.53-9.32 2.78-13.85 1.58-5.7 5.57-9.16 11.41-10.29a14.11 14.11 0 0 1 11.11 2.49q4.85 3.42 9.63 6.92a9.23 9.23 0 0 1 0 15.14 8.52 8.52 0 0 1-5.08 1.65A19.76 19.76 0 0 0 507 190zm-15.81-26.08c-2.82 1-5.76.21-8.37-2a11 11 0 0 1-3.05-12.23 8 8 0 0 1 11.44-4.15 11 11 0 0 1 4.93 13.8 8.31 8.31 0 0 1-4.95 4.58zm22.27-16.83c1.29 3.78 1.13 6.95-.87 9.86-3 4.38-8.56 4.67-12.08.69a10.06 10.06 0 0 1 .09-13.12 7.38 7.38 0 0 1 11.1.08 21.07 21.07 0 0 1 1.76 2.49zm-28.93 20.2c.93 2.6.94 5.13-.73 7.42-1.9 2.6-4.58 3.27-7.63 2.62a9.41 9.41 0 0 1-7.1-8.86c0-5 4.48-8.26 9.41-6.76a9.39 9.39 0 0 1 6.05 5.58zM258.86 85.68a38.88 38.88 0 0 0-6-16.66 9.34 9.34 0 0 1-1-1.83 7.63 7.63 0 0 0-4.3-4.48c-4.22-1.71-8.56-3.19-12.76-4.86-13.66-5.38-25.27-9.62-35-21s-17.51-21.72-31.44-27.79c-10.83-4.72-22-8.15-33.88-9-22.76-1.5-41.19 14.8-54.07 31.81a103.71 103.71 0 0 0-21 62.94c.11 12.16 4.07 25.26 7.82 36.76l38.87 118.94q3.52 10.89 7 21.78l1.15 3.51c1.82 5.26 5.9 5.23 7.66-.11L167.5 134.9c1.09-3.39 2.34-7 5.21-9.12 2.71-2 6.3-2.22 9.66-2.24 10.76-.08 21.51 1.11 32.25.7s21.77-2.58 30.64-8.68a31.06 31.06 0 0 0 13.6-29.88z" fill="#f6851f"/><g stroke="#fff" stroke-miterlimit="10"><path d="M152.2 122.9c-1 1.49-7.08 10.07-8.1 11.4-5.32 6.95-12.3 10.94-21.12 11.24-8.39.29-15.92-2.48-22.77-7.16-7.55-5.16-12.91-12.18-16.74-20.38a76.56 76.56 0 0 1-6.61-40.64c.8-8 2.77-15.76 7-22.7 3.32-5.4 6.84-10.7 10.38-16a77 77 0 0 1 12.26-14.52 38 38 0 0 1 29.08-9.91c9.36.64 18.19 3.35 26.73 7.07a45.31 45.31 0 0 1 16 11c2.8 3.11 5.33 6.48 7.83 9.84 3.72 5 8.06 9.23 13.84 11.71 4.87 2.09 9.82 4 14.75 5.95l10.06 3.83a6 6 0 0 1 3.47 3.73 2.43 2.43 0 0 0 .3.63 30.74 30.74 0 0 1 5 13.78c1.46 10.48-2.33 18.53-11.37 24.06a46 46 0 0 1-16.44 5.71 89.79 89.79 0 0 1-22.39.82c-5.64-.44-11.27-.57-16.84.67-6.1 1.37-11.09 4.4-14.37 9.86" fill="#13213c"/><path d="M146.74 131.12l-3 4.31c-5.4 7-12.48 11.1-21.42 11.4-8.51.29-16.14-2.52-23.09-7.26-7.65-5.23-13.09-12.35-17-20.67a77.58 77.58 0 0 1-6.63-41.21c.81-8.15 2.81-16 7.14-23 3.37-5.48 6.93-10.85 10.53-16.19a78 78 0 0 1 12.43-14.74 38.53 38.53 0 0 1 29.49-10c9.49.65 18.44 3.4 27.1 7.17A46 46 0 0 1 178.51 32c2.84 3.15 5.41 6.57 7.94 10 3.77 5.06 8.17 9.35 14 11.87 4.94 2.12 10 4.06 15 6l10.21 3.89a6.12 6.12 0 0 1 3.51 3.78 2.91 2.91 0 0 0 .31.64 31.17 31.17 0 0 1 5.08 14C236 92.82 232.19 101 223 106.59a46.51 46.51 0 0 1-16.68 5.79 91.28 91.28 0 0 1-22.7.84c-5.72-.45-11.43-.59-17.08.68-6.18 1.38-11.23 4.44-14.56 10m3-6.62c4.26-3.78 9.49-5.31 15-6 5.21-.68 10.4-.28 15.6.05a83 83 0 0 0 23.16-1.47c6.22-1.36 12.1-3.51 17-7.76 5.17-4.49 7.34-10.25 7-17a32.73 32.73 0 0 0-1.67-8.69 50 50 0 0 1 0 5.49 16.74 16.74 0 0 1-1.24 4.79 4.38 4.38 0 0 1-4.83 2.54c-3.69-.43-6.62-2.46-9.23-4.89a12.19 12.19 0 0 1-.1-18 26.49 26.49 0 0 1 4.14-2.7l-8.62-3.13c-3.8-1.49-7.59-3-11.33-4.67-6.51-2.82-11.36-7.59-15.5-13.24a115.53 115.53 0 0 0-7.67-9.54 42.21 42.21 0 0 0-14-9.75 81 81 0 0 0-27.11-7.52c-12-1-22.19 3-30.65 11.51a105.9 105.9 0 0 0-13 16.88l-7.6 11.88c-4 6.67-5.84 14-6.65 21.7a76.93 76.93 0 0 0 3.86 33.82c3.32 9.48 8.36 17.87 16.26 24.29 6.46 5.24 13.8 8.49 22.18 8.89 9.8.46 17.44-3.68 23-11.63a38.37 38.37 0 0 0 6.65-25.07 31.21 31.21 0 0 0-4.68-15.26 38.41 38.41 0 0 0-5.22-6.37A68.63 68.63 0 0 1 122 56.89a57.07 57.07 0 0 1-2.29-13.17V42.6c0-.69.33-1.14 1-1.12s1 .52 1 1.18c0 .47 0 1 .06 1.42a63.16 63.16 0 0 0 15.43 36.63c1.76 2.07 3.73 4 5.61 5.94a32 32 0 0 1 8 15.4 42.05 42.05 0 0 1-.59 20.31v.09a68.76 68.76 0 0 1 4.78-5.19zm72.93-46.51a6.3 6.3 0 0 0-8.88-4.34c-4.57 2.22-6.65 8.6-4.22 13.28 2 3.89 5.44 6.11 9.49 7.36 2.14.66 3.43-.14 4.19-2.28.85-2.37.68-4.83.54-7.28-.05-.84-.23-1.68-.35-2.53h.1l-.85-4.23z" fill="#fff"/><path d="M228.8 75l-.87-4.2a6.3 6.3 0 0 0-8.88-4.34c-4.57 2.22-6.65 8.6-4.22 13.28 2 3.89 5.44 6.11 9.49 7.36 2.14.66 3.43-.14 4.19-2.28.85-2.37.68-4.83.54-7.28-.05-.84-.23-1.68-.35-2.53z" fill="#13213c"/><path d="M167.92 44.28a10.1 10.1 0 0 0-7.09 4.57 40.81 40.81 0 0 0-2.2 3.8 1 1 0 0 0 .37 1.55c.72.36 1.11-.09 1.46-.68a42.31 42.31 0 0 1 2.54-4.08 7.25 7.25 0 0 1 8.79-2.62 17.19 17.19 0 0 1 6.28 4.1c.53.5 1.06 1 1.74.35s.24-1.3-.32-1.83c-2.88-2.7-6-4.88-10.14-5.19a11.73 11.73 0 0 0-1.43.03z" fill="#fff"/><path d="M145.5,133c2.58-4,6.14-8.35,7.58-10.74" fill="#13213c"/></g><text transform="translate(63.57 528.02)" font-size="43.4" fill="#231f20" font-family="MyriadPro-Regular,Myriad Pro"><tspan class="F">I</tspan><tspan x="10.81" y="0">l miglio</tspan><tspan class="G" x="145.08" y="0">r</tspan><tspan x="158.84" y="0">e ami</tspan><tspan class="H" x="257.05" y="0">c</tspan><tspan x="276.24" y="0">o del cane</tspan></text></svg>