<svg width="25" height="24" viewBox="0 0 25 24" fill="none" xmlns="http://www.w3.org/2000/svg">
<path d="M21.5 8H3.5M16.5 2V5M8.5 2V5M8.3 22H16.7C18.3802 22 19.2202 22 19.862 21.673C20.4265 21.3854 20.8854 20.9265 21.173 20.362C21.5 19.7202 21.5 18.8802 21.5 17.2V8.8C21.5 7.11984 21.5 6.27976 21.173 5.63803C20.8854 5.07354 20.4265 4.6146 19.862 4.32698C19.2202 4 18.3802 4 16.7 4H8.3C6.61984 4 5.77976 4 5.13803 4.32698C4.57354 4.6146 4.1146 5.07354 3.82698 5.63803C3.5 6.27976 3.5 7.11984 3.5 8.8V17.2C3.5 18.8802 3.5 19.7202 3.82698 20.362C4.1146 20.9265 4.57354 21.3854 5.13803 21.673C5.77976 22 6.61984 22 8.3 22ZM12.4973 12.3306C11.6975 11.4216 10.3639 11.1771 9.36188 12.0094C8.35986 12.8418 8.21879 14.2335 9.00568 15.2179C9.577 15.9327 11.1593 17.3397 11.9833 18.0569C12.162 18.2124 12.2513 18.2902 12.356 18.321C12.4466 18.3477 12.5479 18.3477 12.6386 18.321C12.7432 18.2902 12.8325 18.2124 13.0112 18.0569C13.8353 17.3397 15.4175 15.9327 15.9888 15.2179C16.7757 14.2335 16.6519 12.8331 15.6326 12.0094C14.6134 11.1858 13.297 11.4216 12.4973 12.3306Z" stroke="#012F93" stroke-width="1.5" stroke-linecap="round" stroke-linejoin="round"/>
</svg>
