<svg width="16" height="16" viewBox="0 0 16 16" fill="none" xmlns="http://www.w3.org/2000/svg">
<g clip-path="url(#clip0_161_2718)">
<path d="M12.1428 2.85713C12.1428 2.25092 11.902 1.66954 11.4734 1.24088C11.0447 0.812227 10.4633 0.571411 9.85713 0.571411C9.25092 0.571411 8.66954 0.812227 8.24088 1.24088C7.81223 1.66954 7.57141 2.25092 7.57141 2.85713C7.57396 3.46236 7.81646 4.04187 8.2457 4.46856L3.46856 9.2457C3.04187 8.81646 2.46236 8.57396 1.85713 8.57141C1.25092 8.57141 0.669536 8.81223 0.240882 9.24088C-0.187773 9.66954 -0.428589 10.2509 -0.428589 10.8571C-0.428589 11.4633 -0.187773 12.0447 0.240882 12.4734C0.669536 12.902 1.25092 13.1428 1.85713 13.1428C1.85713 13.7491 2.09794 14.3304 2.5266 14.7591C2.95525 15.1877 3.53663 15.4286 4.14284 15.4286C4.74905 15.4286 5.33043 15.1877 5.75909 14.7591C6.18774 14.3304 6.42856 13.7491 6.42856 13.1428C6.426 12.5376 6.18351 11.9581 5.75427 11.5314L10.5314 6.75427C10.9581 7.18351 11.5376 7.426 12.1428 7.42856C12.7491 7.42856 13.3304 7.18774 13.7591 6.75909C14.1877 6.33043 14.4286 5.74905 14.4286 5.14284C14.4286 4.53663 14.1877 3.95525 13.7591 3.5266C13.3304 3.09794 12.7491 2.85713 12.1428 2.85713Z" stroke="black" stroke-linecap="round" stroke-linejoin="round"/>
</g>
<defs>
<clipPath id="clip0_161_2718">
<rect width="16" height="16" fill="white"/>
</clipPath>
</defs>
</svg>
