<svg width="16" height="16" viewBox="0 0 16 16" fill="none" xmlns="http://www.w3.org/2000/svg">
<g clip-path="url(#clip0_161_2752)">
<path d="M12.1428 2.85725C12.1428 2.25104 11.902 1.66966 11.4734 1.241C11.0447 0.812349 10.4633 0.571533 9.85713 0.571533C9.25092 0.571533 8.66954 0.812349 8.24088 1.241C7.81223 1.66966 7.57141 2.25104 7.57141 2.85725C7.57397 3.46248 7.81646 4.04199 8.2457 4.46868L3.46855 9.24582C3.04187 8.81658 2.46236 8.57409 1.85713 8.57154C1.25092 8.57154 0.669536 8.81235 0.240882 9.24101C-0.187773 9.66966 -0.428589 10.251 -0.428589 10.8573C-0.428589 11.4635 -0.187773 12.0448 0.240882 12.4735C0.669536 12.9021 1.25092 13.143 1.85713 13.143C1.85713 13.7492 2.09794 14.3306 2.5266 14.7592C2.95525 15.1879 3.53663 15.4287 4.14284 15.4287C4.74905 15.4287 5.33043 15.1879 5.75909 14.7592C6.18774 14.3306 6.42856 13.7492 6.42856 13.143C6.426 12.5377 6.18351 11.9582 5.75427 11.5315L10.5314 6.75439C10.9581 7.18364 11.5376 7.42613 12.1428 7.42868C12.7491 7.42868 13.3304 7.18786 13.7591 6.75921C14.1877 6.33055 14.4286 5.74917 14.4286 5.14296C14.4286 4.53675 14.1877 3.95537 13.7591 3.52672C13.3304 3.09806 12.7491 2.85725 12.1428 2.85725Z" fill="#FF9E00" stroke="#FF9E00" stroke-width="0.1" stroke-linecap="round" stroke-linejoin="round"/>
</g>
<defs>
<clipPath id="clip0_161_2752">
<rect width="16" height="16" fill="white"/>
</clipPath>
</defs>
</svg>
