<svg width="27" height="24" viewBox="0 0 27 24" fill="none" xmlns="http://www.w3.org/2000/svg">
<path d="M21.812 8.758C22.246 9.398 22.5 10.169 22.5 11V20H20.5V17.029L18.5 15C18.486 15 11.5 15 11.5 15V20H9.5V17.106L6.886 13.445C6.648 13.014 6.5 12.527 6.5 12H5C3.619 12 2.5 10.881 2.5 9.5C2.5 8.289 3.362 7.28 4.505 7.05C4.505 7.033 4.5 7.017 4.5 7C4.5 5.343 6.5 4 8.5 4C9.704 4 10.901 4.492 11.668 5.241L13.5 7H18.5C18.864 7 19.209 7.064 19.544 7.155C19.7 6.494 20.291 6 21 6C21.828 6 22.5 6.672 22.5 7.5C22.5 8.028 22.225 8.491 21.812 8.758Z" fill="white"/>
<path opacity="0.3" d="M10.5 4.468V5.5C10.5 6.328 9.828 7 9 7C8.172 7 7.5 6.328 7.5 5.5V4.115C7.827 4.042 8.163 4 8.5 4C9.201 4 9.888 4.181 10.5 4.468Z" fill="#14213D"/>
<path opacity="0.4" d="M18.483 14.9999H11.5V20H9.5V17.106L6.886 13.4449C6.648 13.0139 6.5 12.5269 6.5 11.9999H5.219C4.531 11.9999 4.313 11.8919 4.313 11.8919C3.268 11.5919 2.5 10.6409 2.5 9.49995C2.5 8.36695 3.259 7.42195 4.292 7.11595C4.363 7.09395 4.431 7.06495 4.505 7.04995C4.505 7.03295 4.5 7.01695 4.5 6.99995C4.5 5.62295 5.885 4.47495 7.5 4.12195V5.49995C7.5 6.32795 8.172 6.99995 9 6.99995C9.828 6.99995 10.5 6.32795 10.5 5.49995V10.9999C10.5 12.1049 11.395 12.9999 12.5 12.9999H16.495L18.483 14.9999Z" fill="#F0F1EC"/>
<path d="M25.1666 13L21.4999 16.6667L19.8333 15" stroke="#06851A" stroke-width="1.66667" stroke-linecap="round" stroke-linejoin="round"/>
</svg>
