<svg width="17" height="16" viewBox="0 0 17 16" fill="none" xmlns="http://www.w3.org/2000/svg">
<path d="M7.83325 2.66666H5.03325C3.91315 2.66666 3.35309 2.66666 2.92527 2.88464C2.54895 3.07639 2.24299 3.38235 2.05124 3.75867C1.83325 4.1865 1.83325 4.74655 1.83325 5.86666V11.4667C1.83325 12.5868 1.83325 13.1468 2.05124 13.5746C2.24299 13.951 2.54895 14.2569 2.92527 14.4487C3.35309 14.6667 3.91315 14.6667 5.03325 14.6667H10.6333C11.7534 14.6667 12.3134 14.6667 12.7412 14.4487C13.1176 14.2569 13.4235 13.951 13.6153 13.5746C13.8333 13.1468 13.8333 12.5868 13.8333 11.4667V8.66666M5.83323 10.6667H6.9496C7.27572 10.6667 7.43878 10.6667 7.59223 10.6298C7.72828 10.5972 7.85834 10.5433 7.97763 10.4702C8.11219 10.3877 8.22749 10.2724 8.45809 10.0418L14.8333 3.66666C15.3855 3.11437 15.3855 2.21894 14.8333 1.66666C14.281 1.11437 13.3855 1.11437 12.8333 1.66665L6.45808 8.04182C6.22747 8.27242 6.11217 8.38772 6.02971 8.52228C5.95661 8.64157 5.90274 8.77163 5.87007 8.90768C5.83323 9.06113 5.83323 9.22419 5.83323 9.55031V10.6667Z" stroke="#14213D" stroke-linecap="round" stroke-linejoin="round"/>
</svg>
