<svg width="25" height="24" viewBox="0 0 25 24" fill="none" xmlns="http://www.w3.org/2000/svg">
<path d="M7.4 11.4444V14.2222M7.4 11.4444V4.77778C7.4 3.8573 8.16112 3.11111 9.1 3.11111C10.0389 3.11111 10.8 3.8573 10.8 4.77778M7.4 11.4444C7.4 10.524 6.63888 9.77778 5.7 9.77778C4.76112 9.77778 4 10.524 4 11.4444V13.6667C4 18.269 7.80558 22 12.5 22C17.1944 22 21 18.269 21 13.6667V8.11111C21 7.19064 20.2389 6.44444 19.3 6.44444C18.3611 6.44444 17.6 7.19064 17.6 8.11111M10.8 4.77778V10.8889M10.8 4.77778V3.66667C10.8 2.74619 11.5611 2 12.5 2C13.4389 2 14.2 2.74619 14.2 3.66667V4.77778M14.2 4.77778V10.8889M14.2 4.77778C14.2 3.8573 14.9611 3.11111 15.9 3.11111C16.8389 3.11111 17.6 3.8573 17.6 4.77778V8.11111M17.6 8.11111V10.8889" stroke="#C70404" stroke-width="2" stroke-linecap="round" stroke-linejoin="round"/>
</svg>
