<svg width="25" height="24" viewBox="0 0 25 24" fill="none" xmlns="http://www.w3.org/2000/svg">
<path fill-rule="evenodd" clip-rule="evenodd" d="M10.75 6.75C6.88401 6.75 3.75 9.88401 3.75 13.75C3.75 17.616 6.88401 20.75 10.75 20.75C14.616 20.75 17.75 17.616 17.75 13.75C17.75 9.88401 14.616 6.75 10.75 6.75ZM2.25 13.75C2.25 9.05558 6.05558 5.25 10.75 5.25C15.4444 5.25 19.25 9.05558 19.25 13.75C19.25 18.4444 15.4444 22.25 10.75 22.25C6.05558 22.25 2.25 18.4444 2.25 13.75Z" fill="#012F93"/>
<path fill-rule="evenodd" clip-rule="evenodd" d="M22.5303 1.96967C22.8232 2.26256 22.8232 2.73744 22.5303 3.03033L17.0303 8.53033C16.7374 8.82322 16.2626 8.82322 15.9697 8.53033C15.6768 8.23744 15.6768 7.76256 15.9697 7.46967L21.4697 1.96967C21.7626 1.67678 22.2374 1.67678 22.5303 1.96967Z" fill="#012F93"/>
<path fill-rule="evenodd" clip-rule="evenodd" d="M14.75 2.5C14.75 2.08579 15.0858 1.75 15.5 1.75H22C22.4142 1.75 22.75 2.08579 22.75 2.5V9C22.75 9.41421 22.4142 9.75 22 9.75C21.5858 9.75 21.25 9.41421 21.25 9V3.25H15.5C15.0858 3.25 14.75 2.91421 14.75 2.5Z" fill="#012F93"/>
</svg>
