<svg width="25" height="24" viewBox="0 0 25 24" fill="none" xmlns="http://www.w3.org/2000/svg">
<path d="M18.4449 14.277C18.0859 12.9758 17.31 11.8283 16.2361 11.0106C15.1623 10.1928 13.8498 9.74997 12.5 9.74997C11.1502 9.74997 9.83767 10.1928 8.76379 11.0106C7.68991 11.8283 6.91398 12.9758 6.55504 14.277L5.69967 17.3778C5.54609 17.9345 5.52317 18.5192 5.63271 19.0863C5.74225 19.6533 5.98129 20.1874 6.33118 20.6469C6.68107 21.1064 7.13236 21.4788 7.64986 21.7352C8.16736 21.9916 8.73709 22.125 9.31462 22.125H15.6853C16.2628 22.125 16.8326 21.9916 17.3501 21.7352C17.8676 21.4788 18.3189 21.1064 18.6688 20.6469C19.0186 20.1874 19.2577 19.6533 19.3672 19.0863C19.4768 18.5192 19.4538 17.9345 19.3003 17.3778L18.4449 14.277ZM17.4754 19.7379C17.2664 20.0146 16.9958 20.2389 16.6851 20.3928C16.3744 20.5468 16.0321 20.6263 15.6853 20.625H9.31462C8.9681 20.625 8.62625 20.545 8.31575 20.3911C8.00524 20.2373 7.73446 20.0138 7.52452 19.7381C7.31458 19.4624 7.17116 19.142 7.10544 18.8017C7.03972 18.4615 7.05347 18.1107 7.14562 17.7766L8.001 14.6759C8.27264 13.6912 8.85984 12.8228 9.67253 12.204C10.4852 11.5851 11.4785 11.25 12.5 11.25C13.5214 11.25 14.5147 11.5851 15.3274 12.204C16.1401 12.8228 16.7273 13.6912 16.9989 14.6759L17.8543 17.7766C17.9478 18.1106 17.9622 18.4617 17.8965 18.8021C17.8307 19.1426 17.6865 19.4629 17.4754 19.7379ZM7.3484 10.7958C7.4789 9.98016 7.30584 9.10702 6.8609 8.33658C6.41597 7.56614 5.74622 6.97969 4.97479 6.68489C4.14867 6.36938 3.30604 6.41963 2.60132 6.82631C1.20037 7.63519 0.8317 9.62874 1.77965 11.2703C2.22445 12.0407 2.89425 12.6273 3.66567 12.922C4.00739 13.0552 4.37062 13.1246 4.73737 13.1269C5.19428 13.1285 5.64346 13.009 6.03914 12.7805C6.74343 12.3738 7.20843 11.6689 7.3484 10.7958ZM5.86715 10.5587C5.80012 10.9772 5.59481 11.3049 5.28904 11.4815C4.98328 11.658 4.59684 11.6719 4.20075 11.5207C3.75014 11.3486 3.35161 10.9933 3.07851 10.5203C2.55351 9.61092 2.67829 8.51405 3.35132 8.12536C3.52052 8.02935 3.71213 7.97989 3.90665 7.98202C4.08913 7.98391 4.26972 8.01912 4.43953 8.08594C4.89014 8.25811 5.28867 8.61338 5.56176 9.08639C5.83486 9.55941 5.94328 10.0824 5.86715 10.5587ZM7.51087 7.6883C8.04347 8.11406 8.65167 8.33578 9.26672 8.33574C9.45094 8.33568 9.63463 8.31586 9.81464 8.27663C11.3954 7.93299 12.3539 6.14649 11.9512 4.29422C11.7623 3.42488 11.303 2.66217 10.658 2.1465C9.96731 1.59431 9.14915 1.3853 8.35425 1.55817C6.77353 1.90177 5.81507 3.68827 6.21768 5.54053C6.40664 6.40992 6.86592 7.17263 7.51087 7.6883ZM8.67281 3.02395C8.7457 3.00824 8.82006 3.00038 8.89462 3.00052C9.17343 3.00052 9.46022 3.1096 9.72136 3.31838C10.0981 3.61955 10.3694 4.07935 10.4854 4.61311C10.7085 5.63944 10.2555 6.64599 9.49603 6.81108C9.15098 6.88608 8.77861 6.78164 8.44757 6.51694C8.07084 6.21572 7.79948 5.75592 7.68351 5.2222C7.46034 4.1956 7.91343 3.18905 8.67281 3.02395ZM22.3986 6.82631C21.6942 6.41963 20.8511 6.36938 20.0251 6.68489C19.2537 6.97959 18.5839 7.56614 18.1391 8.33658C17.6943 9.10702 17.5212 9.98034 17.6516 10.7958C17.7914 11.6689 18.2563 12.3738 18.9609 12.7805C19.3566 13.009 19.8057 13.1286 20.2627 13.1269C20.6294 13.1246 20.9926 13.0552 21.3344 12.922C22.1058 12.6273 22.7756 12.0407 23.2204 11.2703C24.1682 9.62874 23.7996 7.63519 22.3986 6.82631ZM21.9214 10.5203C21.6483 10.9933 21.2498 11.3486 20.7992 11.5207C20.4033 11.672 20.0167 11.6581 19.711 11.4815C19.4052 11.3048 19.2 10.9772 19.1329 10.5587C19.0567 10.0824 19.165 9.5596 19.4382 9.08681C19.7113 8.61403 20.1098 8.25853 20.5604 8.08636C20.7302 8.01949 20.9108 7.9842 21.0933 7.98225C21.2878 7.98012 21.4794 8.02958 21.6486 8.12559C22.3216 8.51395 22.4466 9.61069 21.9214 10.5203ZM15.1853 8.27663C15.3653 8.31586 15.549 8.33568 15.7332 8.33574C16.3482 8.33574 16.9567 8.11406 17.4891 7.6883C18.134 7.17267 18.5933 6.40992 18.7822 5.54058C19.1849 3.68831 18.2264 1.90181 16.6457 1.55822C15.8508 1.38544 15.0326 1.59431 14.3419 2.14655C13.6969 2.66217 13.2376 3.42492 13.0487 4.29422C12.6461 6.14649 13.6045 7.93299 15.1853 8.27663ZM14.5145 4.61288C14.6305 4.07911 14.9018 3.61913 15.2786 3.31814C15.5398 3.10936 15.8265 3.00028 16.1053 3.00028C16.1799 3.00015 16.2542 3.008 16.3271 3.02372C17.0865 3.18881 17.5396 4.1956 17.3165 5.22169C17.2004 5.75546 16.9291 6.21544 16.5525 6.51647C16.2215 6.78113 15.8493 6.88556 15.504 6.81061C14.7445 6.64575 14.2914 5.63906 14.5145 4.61288Z" fill="#012F93"/>
</svg>
